{"title":"Salim (2014) Suara 720p Upscaled Subs x264 AC3 1.4GB - Shammu","uid":11152341,"size":1574826266,"categoryP":"video","categoryS":"hd___movies","magnet":"?xt=urn:btih:ca97c7e863cb773e4f87a0b875c2b1ed94fe6681&amp;dn=Salim+%282014%29+Suara+720p+Upscaled+Subs+x264+AC3+1.4GB+-+Shammu&amp;tr=udp%3A%2F%2Ftracker.openbittorrent.com%3A80&amp;tr=udp%3A%2F%2Fopen.demonii.com%3A1337&amp;tr=udp%3A%2F%2Ftracker.coppersurfer.tk%3A6969&amp;tr=udp%3A%2F%2Fexodus.desync.com%3A6969","seeders":0,"leechers":2,"uploader":"TeamXDN","files":-1,"time":1412364896,"description":"Salim (2014) Suara 720p Upscaled Subs x264 AC3 1.4GB - Shammu\n\nFormat : MPEG-4\nFormat profile : Base Media\nCodec ID : isom\nFile size : 1.46 GiB\nDuration : 2h 23mn\nOverall bit rate mode : Variable\nOverall bit rate : 1 454 Kbps\nEncoded date : UTC 2014-10-02 15:17:33\nTagged date : UTC 2014-10-02 15:17:33\n\nVideo\nID : 1\nFormat : AVC\nFormat/Info : Advanced Video Codec\nFormat profile : &lt;a class=&quot;__cf_email__&quot; href=&quot;/cdn-cgi/l/email-protection&quot; data-cfemail=&quot;377f5e505f777b041905&quot;&gt;[email&amp;#160;protected]&lt;/a&gt;&lt;script cf-hash='f9e31' type=&quot;text/javascript&quot;&gt;\n/* &lt;![CDATA[ */!function(){try{var t=&quot;currentScript&quot;in document?document.currentScript:function(){for(var t=document.getElementsByTagName(&quot;script&quot;),e=t.length;e--;)if(t[e].getAttribute(&quot;cf-hash&quot;))return t[e]}();if(t&amp;&amp;t.previousSibling){var e,r,n,i,c=t.previousSibling,a=c.getAttribute(&quot;data-cfemail&quot;);if(a){for(e=&quot;&quot;,r=parseInt(a.substr(0,2),16),n=2;a.length-n;n+=2)i=parseInt(a.substr(n,2),16)^r,e+=String.fromCharCode(i);e=document.createTextNode(e),c.parentNode.replaceChild(e,c)}}}catch(u){}}();/* ]]&gt; */&lt;/script&gt;\nFormat settings, CABAC : Yes\nFormat settings, ReFrames : 4 frames\nCodec ID : avc1\nCodec ID/Info : Advanced Video Coding\nDuration : 2h 23mn\nBit rate mode : Variable\nBit rate : 1 003 Kbps\nMaximum bit rate : 24.0 Mbps\nWidth : 1 280 pixels\nHeight : 544 pixels\nDisplay aspect ratio : 2.35:1\nFrame rate mode : Constant\nFrame rate : 29.970 fps\nColor space : YUV\nChroma subsampling : 4:2:0\nBit depth : 8 bits\nScan type : Progressive\nBits/(Pixel*Frame) : 0.048\nStream size : 1.01 GiB (69%)\nEncoded date : UTC 2014-10-02 14:56:17\nTagged date : UTC 2014-10-02 15:20:08\n\nAudio\nID : 2\nFormat : AC-3\nFormat/Info : Audio Coding 3\nMode extension : CM (complete main)\nFormat settings, Endianness : Big\nCodec ID : ac-3\nDuration : 2h 23mn\nBit rate mode : Constant\nBit rate : 448 Kbps\nChannel(s) : 6 channels\nChannel positions : Front: L C R, Side: L R, LFE\nSampling rate : 48.0 KHz\nBit depth : 16 bits\nCompression mode : Lossy\nStream size : 461 MiB (31%)\nEncoded date : UTC 2014-10-02 15:17:37\nTagged date : UTC 2014-10-02 15:20:08","torrent":{"xt":"urn:btih:ca97c7e863cb773e4f87a0b875c2b1ed94fe6681","amp;dn":"Salim+%282014%29+Suara+720p+Upscaled+Subs+x264+AC3+1.4GB+-+Shammu","amp;tr":["udp%3A%2F%2Ftracker.openbittorrent.com%3A80","udp%3A%2F%2Fopen.demonii.com%3A1337","udp%3A%2F%2Ftracker.coppersurfer.tk%3A6969","udp%3A%2F%2Fexodus.desync.com%3A6969"],"infoHash":"ca97c7e863cb773e4f87a0b875c2b1ed94fe6681","infoHashBuffer":{"type":"Buffer","data":[202,151,199,232,99,203,119,62,79,135,160,184,117,194,177,237,148,254,102,129]},"announce":[],"urlList":[]}}